Coordinates
version=1
nRows=26
nColumns=24
inDegrees=yes

Units are S.I. units (second, meters, Newtons, ...)
Angles are in degrees.

endheader
time	pelvis_tilt	pelvis_list	pelvis_rotation	pelvis_tx	pelvis_ty	pelvis_tz	hip_flexion_r	hip_adduction_r	hip_rotation_r	knee_angle_r	ankle_angle_r	subtalar_angle_r	mtp_angle_r	hip_flexion_l	hip_adduction_l	hip_rotation_l	knee_angle_l	ankle_angle_l	subtalar_angle_l	mtp_angle_l	lumbar_extension	lumbar_bending	lumbar_rotation
      3.59000000	    -17.85093109	     -4.11922561	      3.72569076	     -2.05941719	     -0.03882130	     -0.38226305	     44.60001251	      2.13212812	    -17.10581884	    -14.21105751	     -0.68844018	     -1.59444920	     18.31163076	     -1.15870401	     -3.43149816	     -6.56141564	    -14.93999053	      7.03261767	     11.55835374	      8.69899919	     21.32207031	     -0.67840785	    -21.05789464
      3.59500000	    -17.94517203	     -4.26764556	      3.71413626	     -2.05156513	     -0.04004227	     -0.38187651	     44.81342749	      2.30723164	    -16.75830155	    -14.99484516	     -1.35435038	     -2.64689902	     18.35639550	     -1.26160506	     -3.71825148	     -6.45372561	    -15.51415168	      6.58046722	     11.73743297	      8.65691736	     21.58008399	     -0.52473842	    -21.13779321
      3.60000000	    -17.95223069	     -4.49316693	      3.71688053	     -2.04369798	     -0.04114811	     -0.38149373	     44.93405309	      2.54992645	    -16.46160223	    -15.80906931	     -2.12647940	     -3.78481444	     18.35642492	     -1.41456506	     -4.10520632	     -6.36861813	    -16.14878553	      6.13846536	     11.98036559	      8.72761879	     21.74348377	     -0.29265994	    -21.24063207
      3.60500000	    -17.96045215	     -4.72573799	      3.67264197	     -2.03576643	     -0.04220895	     -0.38104688	     45.06095478	      2.84992465	    -16.04472063	    -16.65469474	     -3.00608707	     -5.13095175	     18.31464270	     -1.55645109	     -4.50650455	     -6.38097561	    -16.80256359	      5.60968433	     12.23889907	      8.86686326	     21.91719429	     -0.03373736	    -21.30968326
      3.61000000	    -17.98190677	     -4.94033324	      3.52364920	     -2.02776284	     -0.04324626	     -0.38041832	     45.21063216	      3.23335713	    -15.43245455	    -17.53338764	     -3.92956399	     -6.61658242	     18.21677557	     -1.67354654	     -4.90992067	     -6.65431561	    -17.49051999	      4.94900039	     12.57456719	      9.21866394	     22.10997953	      0.23791556	    -21.29174223
      3.61500000	    -18.02344663	     -5.19890549	      3.43430869	     -2.01978603	     -0.04421942	     -0.37985737	     45.39477850	      3.61559237	    -14.85906574	    -18.46199549	     -4.83906164	     -8.16365331	     17.92336577	     -1.71388500	     -5.35453390	     -6.75857655	    -18.23313761	      4.21346442	     12.79719516	      9.65819579	     22.32223190	      0.52779665	    -21.34009302
      3.62000000	    -18.07810327	     -5.47852285	      3.37991553	     -2.01179174	     -0.04509936	     -0.37931781	     45.58674437	      4.00648899	    -14.24537877	    -19.40812074	     -5.66239053	     -9.73302979	     17.44186208	     -1.68098331	     -5.82412404	     -6.81261651	    -19.04805977	      3.34702927	     12.95341697	     10.09610016	     22.55310007	      0.81684283	    -21.44762675
      3.62500000	    -18.14289310	     -5.71742955	      3.21842981	     -2.00386622	     -0.04599255	     -0.37856001	     45.85382869	      4.45668217	    -13.50936837	    -20.50065782	     -6.39956091	    -11.26861447	     16.33070039	     -1.62672768	     -6.27911909	     -7.04964695	    -19.87117859	      2.38281457	     13.23627000	     11.07028391	     22.77262553	      1.10202491	    -21.38729509
      3.63000000	    -18.15851242	     -5.98686794	      3.19042071	     -1.99596840	     -0.04675350	     -0.37794302	     46.06040067	      4.86095827	    -12.80197332	    -21.64732893	     -6.80363368	    -12.60922276	     14.46403939	     -1.52984327	     -6.76668250	     -7.13541766	    -20.76674423	      1.23026336	     13.26408449	     12.38656741	     22.93837593	      1.35799132	    -21.56140593
      3.63500000	    -18.24302321	     -6.28201282	      3.06001489	     -1.98803789	     -0.04751443	     -0.37727276	     46.32816172	      5.34833965	    -12.12754606	    -22.74820139	     -7.22184898	    -13.96869034	     13.31531556	     -1.31546739	     -7.27966228	     -7.30525677	    -21.79632540	      0.07855523	     13.36809825	     13.04353189	     23.18182984	      1.68677621	    -21.57359856
      3.64000000	    -18.22062560	     -6.55717736	      3.04955332	     -1.98015710	     -0.04808425	     -0.37665762	     46.48045838	      5.76603152	    -11.49324560	    -23.94189531	     -7.21415993	    -14.94663291	     10.87236609	     -1.15816504	     -7.78164452	     -7.32042977	    -22.78043175	     -1.38516668	     13.24824244	     14.65937314	     23.30312635	      1.93729915	    -21.76731842
      3.64500000	    -18.29100434	     -6.85289402	      2.94981062	     -1.97230882	     -0.04874401	     -0.37596291	     46.70838940	      6.25002279	    -10.91193895	    -25.04643581	     -7.24598933	    -16.04270690	      9.56254946	     -0.81645711	     -8.32409893	     -7.50334584	    -23.97420233	     -2.77634435	     13.31114922	     15.53808171	     23.51472490	      2.24425611	    -21.84004256
      3.65000000	    -18.23140509	     -7.11318108	      2.95741263	     -1.96450992	     -0.04915078	     -0.37537009	     46.78208871	      6.63671870	    -10.52161056	    -26.19992284	     -6.92750822	    -16.75988974	      7.24348701	     -0.57155115	     -8.81814494	     -7.48366330	    -25.08086301	     -4.54083349	     13.03683303	     17.32403978	     23.58087770	      2.47499431	    -22.00604485
      3.65500000	    -18.23984326	     -7.41275342	      2.96083461	     -1.95682254	     -0.04961877	     -0.37474943	     46.86969919	      7.06651787	    -10.08058488	    -27.21551929	     -6.57068866	    -17.47411262	      5.70064987	     -0.13527645	     -9.37382354	     -7.48998336	    -26.38926867	     -6.24271524	     12.91904634	     18.62759164	     23.70428327	      2.73408440	    -22.22631826
      3.66000000	    -18.15733103	     -7.68075810	      3.04568885	     -1.94924912	     -0.04989215	     -0.37425770	     46.82713584	      7.40139748	     -9.84310945	    -28.19465331	     -6.02935906	    -17.97327620	      4.02617234	      0.27372936	     -9.87287200	     -7.32522951	    -27.69413431	     -8.18351049	     12.53414638	     20.22909040	     23.71521391	      2.93956251	    -22.49485127
      3.66500000	    -18.08230739	     -7.97425210	      3.05486194	     -1.94160589	     -0.05013388	     -0.37377186	     46.73012922	      7.79098708	     -9.69359783	    -29.07988949	     -5.36394947	    -18.24811365	      2.51152697	      0.71380317	    -10.39521073	     -7.26021650	    -29.02981866	    -10.24815023	     12.02571147	     21.79790457	     23.74471096	      3.21481377	    -22.66967808
      3.67000000	    -17.95931277	     -8.26091461	      3.11991082	     -1.93420673	     -0.05028479	     -0.37341030	     46.52064908	      8.13456023	     -9.59071140	    -29.79049343	     -4.79136726	    -18.71637822	      2.26223127	      1.23783373	    -10.88911448	     -7.07911518	    -30.59418151	    -12.15070954	     11.60765218	     21.97336325	     23.68789458	      3.47370004	    -22.90516646
      3.67500000	    -17.90722047	     -8.51662068	      3.19737962	     -1.92687881	     -0.05043150	     -0.37285485	     46.37846062	      8.44330241	     -9.57266085	    -30.56091536	     -3.96783017	    -18.72106160	      0.50760651	      1.86348319	    -11.37304775	     -6.87060545	    -31.98684748	    -14.48131207	     10.91625036	     24.37876736	     23.69617186	      3.65608552	    -23.12766382
      3.68000000	    -17.82745594	     -8.83960821	      3.35920807	     -1.91969769	     -0.05046581	     -0.37255328	     46.12449290	      8.72221857	     -9.72175919	    -31.10396350	     -3.29245980	    -18.89471207	      0.17843803	      2.60069077	    -11.87965743	     -6.46448283	    -33.63191412	    -16.50712654	     10.39440510	     24.77177085	     23.66706199	      3.89139912	    -23.46416398
      3.68500000	    -17.81180246	     -9.13566202	      3.42637530	     -1.91252874	     -0.05057372	     -0.37214955	     45.89962441	      9.03955460	     -9.79564559	    -31.61797142	     -2.44478249	    -18.78095284	     -0.54174790	      3.40909347	    -12.36112390	     -6.20966293	    -35.23383585	    -18.62230151	      9.60797728	     25.92675975	     23.70117253	      4.13827690	    -23.68651945
      3.69000000	    -17.70765536	     -9.43608385	      3.55971306	     -1.90558486	     -0.05050789	     -0.37180706	     45.54414654	      9.32104503	     -9.99376526	    -32.00779966	     -1.76237783	    -18.88397124	     -0.70137571	      4.22688937	    -12.82202855	     -5.83273371	    -36.96297475	    -20.53364974	      8.90024313	     26.07629395	     23.61179402	      4.36722179	    -23.94230241
      3.69500000	    -17.63992838	     -9.77162921	      3.58615845	     -1.89860540	     -0.05044398	     -0.37141869	     45.16053895	      9.70835125	    -10.10227086	    -32.27710688	     -1.08984814	    -18.89257621	     -0.72315633	      5.08505907	    -13.31944893	     -5.59194459	    -38.71650122	    -22.28858744	      8.09522246	     26.03491552	     23.56519681	      4.68799249	    -24.10051149
      3.70000000	    -17.65565458	    -10.05378350	      3.77155186	     -1.89186516	     -0.05036352	     -0.37121845	     44.87169591	      9.88082263	    -10.45694313	    -32.55515598	     -0.33714491	    -18.67324859	     -0.80123299	      6.15469379	    -13.68452884	     -5.03187679	    -40.49098424	    -23.93947950	      7.21688630	     26.15869439	     23.58797134	      4.87236110	    -24.39303182
      3.70500000	    -17.65079682	    -10.35947197	      3.85026066	     -1.88513080	     -0.05021945	     -0.37091800	     44.50617309	     10.17274122	    -10.69374059	    -32.72158909	      0.32930054	    -18.51159964	     -0.81131915	      7.19239433	    -14.08114758	     -4.62972471	    -42.27406389	    -25.33713982	      6.26061131	     26.03803748	     23.58331499	      5.13302508	    -24.55757680
      3.71000000	    -17.67025446	    -10.64939637	      3.93756198	     -1.87845317	     -0.05002391	     -0.37067666	     44.12810512	     10.43582109	    -10.94972913	    -32.81751036	      0.99439610	    -18.30115119	     -0.74907208	      8.29066204	    -14.42969362	     -4.19489292	    -44.06294688	    -26.46430704	      5.29060403	     25.72604496	     23.60328578	      5.38536428	    -24.71219241
      3.71500000	    -17.70317005	    -10.92703777	      4.01641906	     -1.87184936	     -0.04977165	     -0.37045501	     43.73464709	     10.69110825	    -11.20692884	    -32.85122909	      1.61666742	    -18.08091250	     -0.62870614	      9.42783269	    -14.73745577	     -3.75238787	    -45.84987573	    -27.28986161	      4.28561082	     25.22047980	     23.62927391	      5.62870597	    -24.82081254
